<svg width="209" height="73" viewBox="0 0 209 73" fill="none" xmlns="http://www.w3.org/2000/svg">
<g filter="url(#filter0_i_9_6)">
<path d="M22.5273 39.0234V24.6582C22.5273 23.229 23.686 22.0703 25.1152 22.0703V22.0703C26.5445 22.0703 27.7031 23.229 27.7031 24.6582V39.0234C27.7031 43.4766 29.9818 45.7031 34.5391 45.7031C39.0964 45.7031 41.375 43.4766 41.375 39.0234V24.6582C41.375 23.229 42.5336 22.0703 43.9629 22.0703V22.0703C45.3921 22.0703 46.5508 23.229 46.5508 24.6582V39.0234C46.5508 46.4714 42.5469 50.1953 34.5391 50.1953C26.5312 50.1953 22.5273 46.4714 22.5273 39.0234Z" fill="#495464"/>
<path d="M54.5098 50C53.0805 50 51.9219 48.8414 51.9219 47.4121V31.7062C51.9219 30.4834 52.9131 29.4922 54.1359 29.4922H54.9938C55.5374 29.4922 56.0072 29.8719 56.1211 30.4035V30.4035C56.3136 31.3018 57.446 31.636 58.1999 31.1109C59.7491 30.0318 61.4455 29.4922 63.2891 29.4922C68.1458 29.4922 70.5742 32.0182 70.5742 37.0703V47.4121C70.5742 48.8414 69.4156 50 67.9863 50V50C66.5571 50 65.3984 48.8414 65.3984 47.4121V37.0703C65.3984 34.8047 64.2721 33.6719 62.0195 33.6719C60.87 33.6719 59.7387 33.986 58.6257 34.6141C57.5948 35.196 57.0977 36.3675 57.0977 37.5513V47.4121C57.0977 48.8414 55.939 50 54.5098 50V50Z" fill="#495464"/>
<path d="M78.6016 22.0703C79.7342 22.0703 80.6523 22.9885 80.6523 24.1211V24.1211C80.6523 25.2537 79.7342 26.1719 78.6016 26.1719H77.5273C76.3947 26.1719 75.4766 25.2537 75.4766 24.1211V24.1211C75.4766 22.9885 76.3947 22.0703 77.5273 22.0703H78.6016ZM78.0645 29.4922C79.4937 29.4922 80.6523 30.6508 80.6523 32.0801V47.4121C80.6523 48.8414 79.4937 50 78.0645 50V50C76.6352 50 75.4766 48.8414 75.4766 47.4121V32.0801C75.4766 30.6508 76.6352 29.4922 78.0645 29.4922V29.4922Z" fill="#495464"/>
<path d="M88.6309 50C87.2016 50 86.043 48.8414 86.043 47.4121V26.0703C86.043 23.8612 87.8338 22.0703 90.043 22.0703H98.543C104.246 22.0703 107.098 24.694 107.098 29.9414C107.098 35.0398 103.967 38.3349 97.7052 39.8268C96.441 40.128 95.2318 39.2382 95.0252 37.9552V37.9552C94.8203 36.6829 95.6824 35.5063 96.913 35.1235C100.096 34.1335 101.688 32.4582 101.688 30.0977C101.688 27.7799 100.529 26.6211 98.2109 26.6211H95.2188C93.0096 26.6211 91.2188 28.412 91.2188 30.6211V47.4121C91.2188 48.8414 90.0601 50 88.6309 50V50Z" fill="#495464"/>
<path d="M114.246 39.668C114.246 43.9518 115.906 46.0938 119.227 46.0938C122.547 46.0938 124.207 43.9518 124.207 39.668C124.207 35.4883 122.547 33.3984 119.227 33.3984C115.906 33.3984 114.246 35.4883 114.246 39.668ZM109.07 39.7461C109.07 32.8711 112.456 29.4336 119.227 29.4336C125.997 29.4336 129.383 32.8711 129.383 39.7461C129.383 46.6081 125.997 50.0391 119.227 50.0391C112.482 50.0391 109.096 46.6081 109.07 39.7461Z" fill="#495464"/>
<path d="M135.877 50C134.448 50 133.289 48.8414 133.289 47.4121V31.737C133.289 30.4972 134.294 29.4922 135.534 29.4922H136.457C136.948 29.4922 137.375 29.8272 137.493 30.3038V30.3038C137.69 31.1036 138.69 31.3922 139.366 30.9214C140.089 30.4177 140.828 30.0471 141.583 29.8097C142.684 29.4635 143.641 30.4278 143.641 31.582V31.582C143.641 32.7362 142.681 33.6355 141.586 34.0003C140.915 34.2239 140.272 34.5616 139.658 35.0136C138.832 35.6221 138.465 36.6465 138.465 37.6728V47.4121C138.465 48.8414 137.306 50 135.877 50V50Z" fill="#495464"/>
<path d="M146.277 28.3081C146.277 27.1283 147.234 26.1719 148.414 26.1719V26.1719C149.405 26.1719 150.267 26.8604 150.495 27.8254V27.8254C150.723 28.7981 151.593 29.4922 152.592 29.4922H153.992C155.125 29.4922 156.043 30.4104 156.043 31.543V31.543C156.043 32.6756 155.125 33.5938 153.992 33.5938H153.748C152.481 33.5938 151.453 34.6212 151.453 35.8887V43.0273C151.453 44.9414 152.28 45.8984 153.934 45.8984H153.992C155.125 45.8984 156.043 46.8166 156.043 47.9492V47.9492C156.043 49.0818 155.125 50 153.992 50H151.434C147.996 50 146.277 48.1576 146.277 44.4727V28.3081Z" fill="#495464"/>
<path d="M158.602 43.6133C158.602 39.5378 161.57 37.5 167.508 37.5C168.393 37.5 169.278 37.5525 170.163 37.6576C170.959 37.7521 171.688 37.1496 171.688 36.3477V36.3477C171.688 34.5117 170.366 33.5938 167.723 33.5938C166.178 33.5938 164.515 33.7486 162.735 34.0584C161.465 34.2794 160.262 33.3332 160.262 32.0445V32.0445C160.262 31.1207 160.895 30.3122 161.801 30.1314C163.937 29.7053 165.911 29.4922 167.723 29.4922C173.816 29.4922 176.863 31.7448 176.863 36.25V47.8732C176.863 49.0478 175.899 50 174.724 50V50C174.171 50 173.636 49.7803 173.245 49.3893V49.3893C172.535 48.6791 171.428 48.5994 170.52 49.0286C169.15 49.6762 167.684 50 166.121 50C161.108 50 158.602 47.8711 158.602 43.6133ZM171.688 43.4293C171.688 42.253 170.858 41.2258 169.686 41.1152C168.983 41.0488 168.257 41.0156 167.508 41.0156C165.021 41.0156 163.777 41.862 163.777 43.5547C163.777 45.3776 164.819 46.2891 166.902 46.2891C168.214 46.2891 169.454 45.9779 170.622 45.3557C171.32 44.984 171.688 44.2197 171.688 43.4293V43.4293Z" fill="#495464"/>
<path d="M184.354 22.0703C185.783 22.0703 186.941 23.229 186.941 24.6582V47.4121C186.941 48.8414 185.783 50 184.354 50V50C182.924 50 181.766 48.8414 181.766 47.4121V24.6582C181.766 23.229 182.924 22.0703 184.354 22.0703V22.0703Z" fill="#495464"/>
</g>
<defs>
<filter id="filter0_i_9_6" x="0" y="0" width="209" height="77" filterUnits="userSpaceOnUse" color-interpolation-filters="sRGB">
<feFlood flood-opacity="0" result="BackgroundImageFix"/>
<feBlend mode="normal" in="SourceGraphic" in2="BackgroundImageFix" result="shape"/>
<feColorMatrix in="SourceAlpha" type="matrix" values="0 0 0 0 0 0 0 0 0 0 0 0 0 0 0 0 0 0 127 0" result="hardAlpha"/>
<feOffset dy="4"/>
<feGaussianBlur stdDeviation="2"/>
<feComposite in2="hardAlpha" operator="arithmetic" k2="-1" k3="1"/>
<feColorMatrix type="matrix" values="0 0 0 0 0 0 0 0 0 0 0 0 0 0 0 0 0 0 0.25 0"/>
<feBlend mode="normal" in2="shape" result="effect1_innerShadow_9_6"/>
</filter>
</defs>
</svg>
